<?xml version="1.0" encoding="UTF-8"?>
<svg id="Calque_1" data-name="Calque 1" xmlns="http://www.w3.org/2000/svg" viewBox="0 0 595.28 841.89">
  <defs>
    <style>
      .cls-1, .cls-2 {
        fill: #00508c;
        stroke-width: 0px;
      }

      .cls-2 {
        fill-rule: evenodd;
      }
    </style>
  </defs>
  <path id="O" class="cls-2" d="M380.67,405.07c-16.55,6.39-33.83,10.81-51.84,13.31,5.84,1.36,11.57,2.99,17.09,5.15,14.77,5.69,27.49,13.7,38.16,24.02,10.68,10.5,19.04,22.86,25.08,37.09,6.23,14.42,9.35,30.07,9.35,46.97v90.2c0,16.72-3.11,32.12-9.35,46.17-6.04,14.05-14.4,26.24-25.08,36.56-10.67,10.14-23.39,18.05-38.16,23.75-14.93,5.88-31.04,8.81-48.29,8.81s-33.9-2.93-48.3-8.81c-14.59-5.69-27.13-13.6-37.63-23.75-10.49-10.32-18.68-22.5-24.54-36.56-5.88-14.05-8.81-29.45-8.81-46.17v-90.2c0-16.9,2.94-32.55,8.81-46.97,5.86-14.23,14.05-26.59,24.54-37.09,10.5-10.32,23.13-18.33,37.9-24.02,4.57-1.82,9.3-3.23,14.12-4.46-20.03-2.3-38.87-6.93-56.47-14-11.41-4.7-22.04-10.26-31.98-16.57-4.3,3.48-8.48,7.1-12.4,11.01-16.19,16.01-28.64,35.22-37.36,57.64-8.89,22.41-12.64,47.54-12.64,74.59v90.56c0,25.96,3.66,49.75,12.38,71.81,8.71,22.06,21.08,41.18,37.09,57.37,15.84,16.19,34.96,28.91,57.37,38.15,22.6,8.9,47.51,13.34,74.71,13.34s52.04-4.44,75.53-13.34c21.17-8.54,39.76-19.92,55.78-34.15,1.41-1.25,2.84-2.58,4.26-4,16.72-16.19,30.06-35.32,40.03-57.37,9.61-22.07,13.37-45.18,13.37-71.14v-90.56c0-26.69-3.76-52.14-13.37-74.2-9.97-22.41-23.31-41.72-40.03-57.91-1.42-1.43-2.85-2.76-4.26-4-3.4-3.02-7-5.82-10.66-8.54-10.72,6.62-22.16,12.41-34.4,17.3Z"/>
  <circle class="cls-1" cx="351.32" cy="142.6" r="24.93"/>
  <circle class="cls-1" cx="244.43" cy="142.6" r="24.93"/>
  <path id="C" class="cls-2" d="M178.14,56.69v154.98c0,16.72,2.8,32.09,8.67,46.14,5.87,14.22,14.06,26.5,24.55,36.83,10.49,10.13,23.04,18.14,37.62,24.01,14.41,5.87,30.52,8.8,48.3,8.8s33.36-2.93,48.3-8.8c14.77-5.88,27.48-13.88,38.16-24.01,10.68-10.32,19.03-22.6,25.08-36.83,6.23-14.05,9.34-29.45,9.34-46.17V38.01l64.96,9.29v164.88c0,25.97-3.85,49.45-13.46,71.51-9.97,22.06-23.31,41.27-40.03,57.64-16.9,16.37-36.91,29.18-60.04,38.42-23.48,9.07-48.65,13.62-75.52,13.62s-52.13-4.55-74.71-13.62c-22.42-9.24-41.54-22.05-57.38-38.42-16.01-16.37-28.37-35.59-37.09-57.64-8.71-22.06-12.29-45.2-12.29-71.17V47.3l65.52,9.39Z"/>
</svg>